<svg width="46" height="44" viewBox="0 0 46 44" fill="none" xmlns="http://www.w3.org/2000/svg">
<rect x="1" y="1.8158" width="44" height="40.3684" rx="7" fill="#0A0A0A" stroke="white" stroke-width="2"/>
<path d="M15.5625 18.6801C15.2461 18.6801 15 18.434 15 18.1176V16.7114C15 16.4301 15.2461 16.1489 15.5625 16.1489H30.1875C30.4688 16.1489 30.75 16.4301 30.75 16.7114V18.1176C30.75 18.434 30.4688 18.6801 30.1875 18.6801H15.5625ZM15.5625 24.3051C15.2461 24.3051 15 24.059 15 23.7426V22.3364C15 22.0551 15.2461 21.7739 15.5625 21.7739H30.1875C30.4688 21.7739 30.75 22.0551 30.75 22.3364V23.7426C30.75 24.059 30.4688 24.3051 30.1875 24.3051H15.5625ZM15.5625 29.9301C15.2461 29.9301 15 29.684 15 29.3676V27.9614C15 27.6801 15.2461 27.3989 15.5625 27.3989H30.1875C30.4688 27.3989 30.75 27.6801 30.75 27.9614V29.3676C30.75 29.684 30.4688 29.9301 30.1875 29.9301H15.5625Z" fill="white"/>
</svg>
