<svg width="16" height="16" viewBox="0 0 16 16" fill="none" xmlns="http://www.w3.org/2000/svg">
<path d="M5.65625 12.9375C5.65625 13 5.59375 13.0312 5.5 13.0312C5.40625 13.0625 5.34375 13 5.34375 12.9375C5.34375 12.875 5.40625 12.8125 5.5 12.8125C5.59375 12.8125 5.65625 12.875 5.65625 12.9375ZM4.6875 12.7812C4.71875 12.7188 4.8125 12.6875 4.90625 12.7188C5 12.75 5.03125 12.8125 5.03125 12.875C5 12.9375 4.90625 12.9688 4.84375 12.9375C4.75 12.9375 4.6875 12.8438 4.6875 12.7812ZM6.09375 12.75C6.15625 12.7188 6.25 12.7812 6.25 12.8438C6.28125 12.9062 6.21875 12.9375 6.125 12.9688C6.03125 13 5.9375 12.9688 5.9375 12.9062C5.9375 12.8125 6 12.75 6.09375 12.75ZM8.125 0.75C12.4688 0.75 16 4.0625 16 8.375C16 11.8438 13.875 14.8125 10.75 15.8438C10.3438 15.9375 10.1875 15.6875 10.1875 15.4688C10.1875 15.2188 10.2188 13.9062 10.2188 12.875C10.2188 12.125 9.96875 11.6562 9.6875 11.4062C11.4375 11.2188 13.2812 10.9688 13.2812 7.96875C13.2812 7.09375 12.9688 6.6875 12.4688 6.125C12.5312 5.90625 12.8125 5.09375 12.375 4C11.7188 3.78125 10.2188 4.84375 10.2188 4.84375C9.59375 4.65625 8.9375 4.59375 8.25 4.59375C7.59375 4.59375 6.9375 4.65625 6.3125 4.84375C6.3125 4.84375 4.78125 3.8125 4.15625 4C3.71875 5.09375 3.96875 5.90625 4.0625 6.125C3.5625 6.6875 3.3125 7.09375 3.3125 7.96875C3.3125 10.9688 5.09375 11.2188 6.84375 11.4062C6.59375 11.625 6.40625 11.9688 6.34375 12.4688C5.875 12.6875 4.75 13.0312 4.0625 11.8125C3.625 11.0625 2.84375 11 2.84375 11C2.09375 11 2.8125 11.5 2.8125 11.5C3.3125 11.7188 3.65625 12.625 3.65625 12.625C4.125 14.0312 6.3125 13.5625 6.3125 13.5625C6.3125 14.2188 6.3125 15.2812 6.3125 15.5C6.3125 15.6875 6.1875 15.9375 5.78125 15.875C2.65625 14.8125 0.5 11.8438 0.5 8.375C0.5 4.0625 3.8125 0.75 8.125 0.75ZM3.53125 11.5312C3.5625 11.5 3.625 11.5312 3.6875 11.5625C3.75 11.625 3.75 11.7188 3.71875 11.75C3.65625 11.7812 3.59375 11.75 3.53125 11.7188C3.5 11.6562 3.46875 11.5625 3.53125 11.5312ZM3.1875 11.2812C3.21875 11.25 3.25 11.25 3.3125 11.2812C3.375 11.3125 3.40625 11.3438 3.40625 11.375C3.375 11.4375 3.3125 11.4375 3.25 11.4062C3.1875 11.375 3.15625 11.3438 3.1875 11.2812ZM4.1875 12.4062C4.25 12.3438 4.34375 12.375 4.40625 12.4375C4.46875 12.5 4.46875 12.5938 4.4375 12.625C4.40625 12.6875 4.3125 12.6562 4.25 12.5938C4.15625 12.5312 4.15625 12.4375 4.1875 12.4062ZM3.84375 11.9375C3.90625 11.9062 3.96875 11.9375 4.03125 12C4.0625 12.0625 4.0625 12.1562 4.03125 12.1875C3.96875 12.2188 3.90625 12.1875 3.84375 12.125C3.78125 12.0625 3.78125 11.9688 3.84375 11.9375Z" fill="#0A0A0A"/>
</svg>
