<svg width="22" height="22" viewBox="0 0 22 22" fill="none" xmlns="http://www.w3.org/2000/svg">
<path d="M19.5543 0.996582C20.3354 0.996582 21.0246 1.68578 21.0246 2.51283V20.1104C21.0246 20.9375 20.3354 21.5807 19.5543 21.5807H1.86478C1.08368 21.5807 0.44043 20.9375 0.44043 20.1104V2.51283C0.44043 1.68578 1.08368 0.996582 1.86478 0.996582H19.5543ZM6.64325 18.6401V8.85348H3.61076V18.6401H6.64325ZM5.127 7.47508C6.09188 7.47508 6.87298 6.69398 6.87298 5.7291C6.87298 4.76422 6.09188 3.93718 5.127 3.93718C4.11617 3.93718 3.33508 4.76422 3.33508 5.7291C3.33508 6.69398 4.11617 7.47508 5.127 7.47508ZM18.084 18.6401V13.2644C18.084 10.6454 17.4867 8.5778 14.4083 8.5778C12.938 8.5778 11.9271 9.40484 11.5136 10.1859H11.4677V8.85348H8.57301V18.6401H11.6055V13.8157C11.6055 12.5292 11.8352 11.2887 13.4434 11.2887C15.0056 11.2887 15.0056 12.759 15.0056 13.8617V18.6401H18.084Z" fill="#0A0A0A"/>
</svg>
