<svg width="22" height="21" viewBox="0 0 22 21" fill="none" xmlns="http://www.w3.org/2000/svg">
<path d="M18.3641 3.41863C20.2938 5.34839 21.4885 7.87546 21.4885 10.6323C21.4885 16.2378 16.8019 20.8325 11.1504 20.8325C9.4504 20.8325 7.79631 20.373 6.28007 19.5919L0.904297 20.9703L2.32865 15.6864C1.45566 14.1702 0.950244 12.4242 0.950244 10.5863C0.950244 4.98082 5.54492 0.386139 11.1504 0.386139C13.9072 0.386139 16.4803 1.48886 18.3641 3.41863ZM11.1504 19.0865C15.837 19.0865 19.7425 15.2729 19.7425 10.6323C19.7425 8.33493 18.7776 6.22138 17.1695 4.61324C15.5613 3.00511 13.4478 2.13212 11.1964 2.13212C6.5098 2.13212 2.69622 5.9457 2.69622 10.5863C2.69622 12.1945 3.15569 13.7567 3.98273 15.1351L4.21247 15.4567L3.33948 18.5811L6.55575 17.7081L6.83143 17.8919C8.16389 18.673 9.63419 19.0865 11.1504 19.0865ZM15.837 12.7458C16.0667 12.8837 16.2505 12.9296 16.2965 13.0675C16.3884 13.1593 16.3884 13.6648 16.1586 14.2621C15.9289 14.8594 14.9181 15.4107 14.4586 15.4567C13.6316 15.5945 12.9883 15.5486 11.3802 14.8134C8.80714 13.7107 7.15306 11.1377 7.01522 10.9998C6.87738 10.8161 6.00439 9.62144 6.00439 8.33493C6.00439 7.09437 6.64764 6.49706 6.87738 6.22138C7.10711 5.9457 7.38279 5.89975 7.56658 5.89975C7.70442 5.89975 7.88821 5.89975 8.02605 5.89975C8.20983 5.89975 8.39362 5.85381 8.62336 6.35922C8.80714 6.86464 9.3585 8.1052 9.40445 8.24304C9.4504 8.38088 9.49634 8.51872 9.40445 8.70251C8.94498 9.66739 8.39362 9.62144 8.6693 10.0809C9.68013 11.7809 10.645 12.3782 12.1613 13.1134C12.391 13.2512 12.5288 13.2053 12.7126 13.0675C12.8505 12.8837 13.3559 12.2864 13.4937 12.0566C13.6775 11.7809 13.8613 11.8269 14.091 11.9188C14.3208 12.0107 15.5613 12.608 15.837 12.7458Z" fill="white"/>
</svg>
